<svg xmlns="http://www.w3.org/2000/svg" width="1921.713" height="693.403" viewBox="0 0 1921.713 693.403">
  <g id="bg_graph-uprising.sall" transform="translate(0.949 -150)" opacity="0.5">
    <g id="Grupo_11" data-name="Grupo 11">
      <path id="Trazado_3" data-name="Trazado 3" d="M27,675V783" fill="none" stroke="#00885e" stroke-width="1" opacity="0.4"/>
      <path id="Trazado_3-2" data-name="Trazado 3" d="M27,675V783" transform="translate(27 19)" fill="none" stroke="#00885e" stroke-width="1" opacity="0.4"/>
      <path id="Trazado_3-3" data-name="Trazado 3" d="M27,675V783" transform="translate(54)" fill="none" stroke="#00885e" stroke-width="1" opacity="0.4"/>
      <path id="Trazado_3-4" data-name="Trazado 3" d="M27,675V783" transform="translate(81 11)" fill="none" stroke="#00885e" stroke-width="1" opacity="0.4"/>
      <path id="Trazado_3-5" data-name="Trazado 3" d="M27,675V783" transform="translate(108)" fill="none" stroke="#00885e" stroke-width="1" opacity="0.4"/>
      <path id="Trazado_3-6" data-name="Trazado 3" d="M27,675V783" transform="translate(135 11)" fill="none" stroke="#00885e" stroke-width="1" opacity="0.4"/>
      <path id="Trazado_3-7" data-name="Trazado 3" d="M27,675V783" transform="translate(162)" fill="none" stroke="#00885e" stroke-width="1" opacity="0.4"/>
      <path id="Trazado_3-8" data-name="Trazado 3" d="M27,675V783" transform="translate(189 7)" fill="none" stroke="#00885e" stroke-width="1" opacity="0.4"/>
      <path id="Trazado_3-9" data-name="Trazado 3" d="M27,675V783" transform="translate(216)" fill="none" stroke="#00885e" stroke-width="1" opacity="0.4"/>
      <path id="Trazado_3-10" data-name="Trazado 3" d="M27,675V783" transform="translate(243 9)" fill="none" stroke="#00885e" stroke-width="1" opacity="0.4"/>
      <path id="Trazado_3-11" data-name="Trazado 3" d="M27,675V783" transform="translate(270)" fill="none" stroke="#00885e" stroke-width="1" opacity="0.4"/>
      <path id="Trazado_3-12" data-name="Trazado 3" d="M27,675V783" transform="translate(297 7)" fill="none" stroke="#00885e" stroke-width="1" opacity="0.4"/>
      <path id="Trazado_3-13" data-name="Trazado 3" d="M27,675V783" transform="translate(324)" fill="none" stroke="#00885e" stroke-width="1" opacity="0.4"/>
      <path id="Trazado_3-14" data-name="Trazado 3" d="M27,675V783" transform="translate(351 7)" fill="none" stroke="#00885e" stroke-width="1" opacity="0.4"/>
      <path id="Trazado_3-15" data-name="Trazado 3" d="M27,675V783" transform="translate(378 9)" fill="none" stroke="#00885e" stroke-width="1" opacity="0.4"/>
      <path id="Trazado_3-16" data-name="Trazado 3" d="M27,675V783" transform="translate(405 27)" fill="none" stroke="#00885e" stroke-width="1" opacity="0.4"/>
      <path id="Trazado_3-17" data-name="Trazado 3" d="M27,675V783" transform="translate(432)" fill="none" stroke="#00885e" stroke-width="1" opacity="0.4"/>
      <path id="Trazado_3-18" data-name="Trazado 3" d="M27,675V783" transform="translate(459 11)" fill="none" stroke="#00885e" stroke-width="1" opacity="0.4"/>
      <path id="Trazado_3-19" data-name="Trazado 3" d="M27,675V783" transform="translate(486)" fill="none" stroke="#00885e" stroke-width="1" opacity="0.4"/>
      <path id="Trazado_3-20" data-name="Trazado 3" d="M27,675V783" transform="translate(513)" fill="none" stroke="#00885e" stroke-width="1" opacity="0.4"/>
      <path id="Trazado_3-21" data-name="Trazado 3" d="M27,675V783" transform="translate(540)" fill="none" stroke="#00885e" stroke-width="1" opacity="0.4"/>
      <path id="Trazado_3-22" data-name="Trazado 3" d="M27,675V783" transform="translate(567 12)" fill="none" stroke="#00885e" stroke-width="1" opacity="0.4"/>
      <path id="Trazado_3-23" data-name="Trazado 3" d="M27,675V783" transform="translate(594)" fill="none" stroke="#00885e" stroke-width="1" opacity="0.4"/>
      <path id="Trazado_3-24" data-name="Trazado 3" d="M27,675V783" transform="translate(621 12)" fill="none" stroke="#00885e" stroke-width="1" opacity="0.4"/>
      <path id="Trazado_3-25" data-name="Trazado 3" d="M27,675V783" transform="translate(648)" fill="none" stroke="#00885e" stroke-width="1" opacity="0.4"/>
      <path id="Trazado_3-26" data-name="Trazado 3" d="M27,675V783" transform="translate(675 7)" fill="none" stroke="#00885e" stroke-width="1" opacity="0.4"/>
      <path id="Trazado_3-27" data-name="Trazado 3" d="M27,675V783" transform="translate(702)" fill="none" stroke="#00885e" stroke-width="1" opacity="0.4"/>
      <path id="Trazado_3-28" data-name="Trazado 3" d="M27,675V783" transform="translate(729 -10)" fill="none" stroke="#00885e" stroke-width="1" opacity="0.4"/>
      <path id="Trazado_3-29" data-name="Trazado 3" d="M27,675V783" transform="translate(756 -37)" fill="none" stroke="#00885e" stroke-width="1" opacity="0.4"/>
      <path id="Trazado_3-30" data-name="Trazado 3" d="M27,675V783" transform="translate(783 7)" fill="none" stroke="#00885e" stroke-width="1" opacity="0.4"/>
      <path id="Trazado_3-31" data-name="Trazado 3" d="M27,675V783" transform="translate(810)" fill="none" stroke="#00885e" stroke-width="1" opacity="0.4"/>
      <path id="Trazado_3-32" data-name="Trazado 3" d="M27,675V783" transform="translate(837 9)" fill="none" stroke="#00885e" stroke-width="1" opacity="0.4"/>
      <path id="Trazado_3-33" data-name="Trazado 3" d="M27,675V783" transform="translate(864)" fill="none" stroke="#00885e" stroke-width="1" opacity="0.4"/>
      <path id="Trazado_3-34" data-name="Trazado 3" d="M27,675V783" transform="translate(891 23)" fill="none" stroke="#00885e" stroke-width="1" opacity="0.4"/>
      <path id="Trazado_3-35" data-name="Trazado 3" d="M27,675V783" transform="translate(918)" fill="none" stroke="#00885e" stroke-width="1" opacity="0.4"/>
      <path id="Trazado_3-36" data-name="Trazado 3" d="M27,675V783" transform="translate(945 38)" fill="none" stroke="#00885e" stroke-width="1" opacity="0.4"/>
      <path id="Trazado_3-37" data-name="Trazado 3" d="M27,675V783" transform="translate(972)" fill="none" stroke="#00885e" stroke-width="1" opacity="0.4"/>
      <path id="Trazado_3-38" data-name="Trazado 3" d="M27,675V783" transform="translate(999 50)" fill="none" stroke="#00885e" stroke-width="1" opacity="0.4"/>
      <path id="Trazado_3-39" data-name="Trazado 3" d="M27,675V783" transform="translate(1026)" fill="none" stroke="#00885e" stroke-width="1" opacity="0.4"/>
      <path id="Trazado_3-40" data-name="Trazado 3" d="M27,675V783" transform="translate(1053 -12)" fill="none" stroke="#00885e" stroke-width="1" opacity="0.4"/>
      <path id="Trazado_3-41" data-name="Trazado 3" d="M27,675V783" transform="translate(1080)" fill="none" stroke="#00885e" stroke-width="1" opacity="0.4"/>
      <path id="Trazado_3-42" data-name="Trazado 3" d="M27,675V783" transform="translate(1107 -17)" fill="none" stroke="#00885e" stroke-width="1" opacity="0.4"/>
      <path id="Trazado_3-43" data-name="Trazado 3" d="M27,675V783" transform="translate(1134)" fill="none" stroke="#00885e" stroke-width="1" opacity="0.4"/>
      <path id="Trazado_3-44" data-name="Trazado 3" d="M27,675V783" transform="translate(1161 -31)" fill="none" stroke="#00885e" stroke-width="1" opacity="0.4"/>
      <path id="Trazado_3-45" data-name="Trazado 3" d="M27,675V783" transform="translate(1188 -134)" fill="none" stroke="#00885e" stroke-width="1" opacity="0.4"/>
      <path id="Trazado_3-46" data-name="Trazado 3" d="M27,675V783" transform="translate(1215 -123)" fill="none" stroke="#00885e" stroke-width="1" opacity="0.4"/>
      <path id="Trazado_3-47" data-name="Trazado 3" d="M27,675V783" transform="translate(1242 -130)" fill="none" stroke="#00885e" stroke-width="1" opacity="0.4"/>
      <path id="Trazado_3-48" data-name="Trazado 3" d="M27,675V783" transform="translate(1269 -132)" fill="none" stroke="#00885e" stroke-width="1" opacity="0.4"/>
      <path id="Trazado_3-49" data-name="Trazado 3" d="M27,675V783" transform="translate(1296 -149)" fill="none" stroke="#00885e" stroke-width="1" opacity="0.4"/>
      <path id="Trazado_3-50" data-name="Trazado 3" d="M27,675V783" transform="translate(1323 -149)" fill="none" stroke="#00885e" stroke-width="1" opacity="0.4"/>
      <path id="Trazado_3-51" data-name="Trazado 3" d="M27,675V783" transform="translate(1350 -420)" fill="none" stroke="#00885e" stroke-width="1" opacity="0.4"/>
      <path id="Trazado_3-52" data-name="Trazado 3" d="M27,675V783" transform="translate(1377 -394)" fill="none" stroke="#00885e" stroke-width="1" opacity="0.4"/>
      <path id="Trazado_3-53" data-name="Trazado 3" d="M27,675V783" transform="translate(1404 -181)" fill="none" stroke="#00885e" stroke-width="1" opacity="0.4"/>
      <path id="Trazado_3-54" data-name="Trazado 3" d="M27,675V783" transform="translate(1431 -252)" fill="none" stroke="#00885e" stroke-width="1" opacity="0.4"/>
      <path id="Trazado_3-55" data-name="Trazado 3" d="M27,675V783" transform="translate(1458 -312)" fill="none" stroke="#00885e" stroke-width="1" opacity="0.4"/>
      <path id="Trazado_3-56" data-name="Trazado 3" d="M27,675V783" transform="translate(1485 -360)" fill="none" stroke="#00885e" stroke-width="1" opacity="0.4"/>
      <path id="Trazado_3-57" data-name="Trazado 3" d="M27,675V783" transform="translate(1512 -390)" fill="none" stroke="#00885e" stroke-width="1" opacity="0.4"/>
      <path id="Trazado_3-58" data-name="Trazado 3" d="M27,675V783" transform="translate(1539 -440)" fill="none" stroke="#00885e" stroke-width="1" opacity="0.4"/>
      <path id="Trazado_3-59" data-name="Trazado 3" d="M27,675V783" transform="translate(1566 -436)" fill="none" stroke="#00885e" stroke-width="1" opacity="0.4"/>
      <path id="Trazado_3-60" data-name="Trazado 3" d="M27,675V783" transform="translate(1593 -510)" fill="none" stroke="#00885e" stroke-width="1" opacity="0.4"/>
      <path id="Trazado_3-61" data-name="Trazado 3" d="M27,675V783" transform="translate(1620 -525)" fill="none" stroke="#00885e" stroke-width="1" opacity="0.4"/>
      <path id="Trazado_3-62" data-name="Trazado 3" d="M27,675V783" transform="translate(1647 -507)" fill="none" stroke="#00885e" stroke-width="1" opacity="0.4"/>
      <path id="Trazado_3-63" data-name="Trazado 3" d="M27,675V783" transform="translate(1674 -471)" fill="none" stroke="#00885e" stroke-width="1" opacity="0.4"/>
      <path id="Trazado_3-64" data-name="Trazado 3" d="M27,675V783" transform="translate(1701 -464)" fill="none" stroke="#00885e" stroke-width="1" opacity="0.4"/>
      <path id="Trazado_3-65" data-name="Trazado 3" d="M27,675V783" transform="translate(1728 -431)" fill="none" stroke="#00885e" stroke-width="1" opacity="0.4"/>
      <path id="Trazado_3-66" data-name="Trazado 3" d="M27,675V783" transform="translate(1755 -448)" fill="none" stroke="#00885e" stroke-width="1" opacity="0.4"/>
      <path id="Trazado_3-67" data-name="Trazado 3" d="M27,675V783" transform="translate(1782 -431)" fill="none" stroke="#00885e" stroke-width="1" opacity="0.4"/>
      <path id="Trazado_3-68" data-name="Trazado 3" d="M27,675V783" transform="translate(1809 -481)" fill="none" stroke="#00885e" stroke-width="1" opacity="0.4"/>
      <path id="Trazado_3-69" data-name="Trazado 3" d="M27,675V783" transform="translate(1836 -468)" fill="none" stroke="#00885e" stroke-width="1" opacity="0.4"/>
      <path id="Trazado_3-70" data-name="Trazado 3" d="M27,675V783" transform="translate(1863 -525)" fill="none" stroke="#00885e" stroke-width="1" opacity="0.4"/>
    </g>
    <path id="Trazado_1" data-name="Trazado 1" d="M1920,162,1801.037,302.835,1636.421,202.122,1502.368,378,1431,540l-36.985-264.253L1391.237,594,1323,586.223l-38.728,20.143L1215,594l-27,108-162,74.536L803.625,702,594,756H432l-73.6-32.946L171.56,729,0,747.364" fill="none" stroke="#138e68" stroke-width="2" opacity="0.5"/>
    <path id="Trazado_2" data-name="Trazado 2" d="M0,783l27-81,27,54,27-27,27,27,27-54,27,27,27-27,27,27h27l27,27,27-54,27,27,27-27,27,54h27l27,27,27-54,27,27,27-27h54l27,27,27-54,27,54,27-54,27,27,27-27,27,27,27-54,27,54,27-27,27,27,27-27,27,54,27-27,27,54,27-27s27.417,27.219,27,27,27-27,27-27l27-27,27,27,27-54,27,27,27-54,27-81,27,27,27-27h27l27-27,27,27,27-297,27,27,27,216,27-54,27-81,27-54,27-27,27-54,27,27,27-81,27-27,27,27,27,54h27l27,27,27-27s27,26.821,27,27,27-54,27-54l27,27,27-81,27-27" fill="none" stroke="#138e68" stroke-width="2" opacity="0.5"/>
    <path id="Trazado_4" data-name="Trazado 4" d="M1920,162l-118.963,95.188-164.615-68.071L1502.368,307.991,1431,417.484l-36.985-178.6-2.778,215.1L1323,448.725l-38.728,13.614L1215,453.982l-27,73-162,50.378L803.625,526.978,594,563.475H432l-73.6-22.268L171.56,545.227,0,557.639" transform="translate(0 199.181)" fill="none" stroke="#fff" stroke-width="2" opacity="0.4" style="mix-blend-mode: soft-light;isolation: isolate"/>
    <path id="Trazado_5" data-name="Trazado 5" d="M0,646.123l27-63.146,27,42.1,27-21.049,27,21.049,27-42.1,27,21.049,27-21.049,27,21.049h27l27,21.049,27-42.1,27,21.049,27-21.049,27,42.1h27l27,21.049,27-42.1,27,21.049,27-21.049h54l27,21.049,27-42.1,27,42.1,27-42.1,27,21.049,27-21.049,27,21.049,27-42.1,27,42.1,27-21.049,27,21.049,27-21.049,27,42.1,27-21.049,27,42.1,27-21.049s27.417,21.219,27,21.049,27-21.049,27-21.049l27-21.049,27,21.049,27-42.1,27,21.049,27-42.1,27-63.147,27,21.049,27-21.049h27l27-21.049,27,21.049,27-231.537,27,21.049,27,168.391,27-42.1,27-63.146,27-42.1,27-21.049,27-42.1,27,21.049,27-63.147,27-21.049,27,21.049,27,42.1h27l27,21.049,27-21.049s27,20.91,27,21.049,27-42.1,27-42.1l27,21.049,27-63.146L1917,162" transform="translate(0 136.877)" fill="none" stroke="#fff" stroke-width="2" opacity="0.4" style="mix-blend-mode: soft-light;isolation: isolate"/>
    <path id="Trazado_6" data-name="Trazado 6" d="M1920,162l-118.963,68.335-164.615-48.867-134.053,85.338L1431,345.41l-36.985-128.219-2.778,154.42L1323,367.838l-38.728,9.773-69.272-6-27,52.4L1026,460.18,803.625,424.014,594,450.216H432L358.4,434.23,171.56,437.115,0,446.026" transform="translate(0 316.356)" fill="none" stroke="#fff" stroke-width="2" opacity="0.3" style="mix-blend-mode: soft-light;isolation: isolate"/>
    <path id="Trazado_7" data-name="Trazado 7" d="M0,528.948l27-47.863,27,31.908L81,497.04l27,15.954,27-31.908,27,15.954,27-15.954,27,15.954h27l27,15.954,27-31.908,27,15.954,27-15.954,27,31.908h27l27,15.954,27-31.909,27,15.954,27-15.954h54l27,15.954,27-31.908,27,31.908,27-31.908,27,15.954,27-15.954,27,15.954,27-31.909,27,31.909,27-15.954,27,15.954,27-15.954,27,31.908,27-15.954,27,31.909,27-15.954s27.417,16.083,27,15.954,27-15.954,27-15.954l27-15.954,27,15.954,27-31.908,27,15.954,27-31.909,27-47.863,27,15.954,27-15.954h27l27-15.954,27,15.954,27-175.5,27,15.954,27,127.634,27-31.909,27-47.863,27-31.909,27-15.954,27-31.909,27,15.954,27-47.863,27-15.954,27,15.954,27,31.909h27l27,15.954,27-15.954s27,15.849,27,15.954,27-31.909,27-31.909l27,15.954,27-47.863L1917,162" transform="translate(0 254.052)" fill="none" stroke="#fff" stroke-width="2" opacity="0.3" style="mix-blend-mode: soft-light;isolation: isolate"/>
    <path id="Trazado_8" data-name="Trazado 8" d="M1920,162l-118.963,68.335-164.615-48.867-134.053,85.338L1431,345.41l-36.985-128.219-2.778,154.42L1323,367.838l-38.728,9.773-69.272-6-27,52.4L1026,460.18,803.625,424.014,594,450.216H432L358.4,434.23,171.56,437.115,0,446.026" transform="translate(0 382.205)" fill="none" stroke="#fff" stroke-width="2" opacity="0.2" style="mix-blend-mode: soft-light;isolation: isolate"/>
    <path id="Trazado_9" data-name="Trazado 9" d="M0,341.413l27-23.4,27,15.6,27-7.8,27,7.8,27-15.6,27,7.8,27-7.8,27,7.8h27l27,7.8,27-15.6,27,7.8,27-7.8,27,15.6h27l27,7.8,27-15.6,27,7.8,27-7.8h54l27,7.8,27-15.6,27,15.6,27-15.6,27,7.8,27-7.8,27,7.8,27-15.6,27,15.6,27-7.8,27,7.8,27-7.8,27,15.6,27-7.8,27,15.6,27-7.8s27.417,7.864,27,7.8,27-7.8,27-7.8l27-7.8,27,7.8,27-15.6,27,7.8,27-15.6,27-23.4,27,7.8,27-7.8h27l27-7.8,27,7.8L1377,201l27,7.8,27,62.4,27-15.6,27-23.4,27-15.6,27-7.8,27-15.6,27,7.8,27-23.4,27-7.8,27,7.8,27,15.6h27l27,7.8,27-7.8s27,7.749,27,7.8,27-15.6,27-15.6l27,7.8,27-23.4,27-7.8" transform="translate(0 441.589)" fill="none" stroke="#fff" stroke-width="2" opacity="0.2" style="mix-blend-mode: soft-light;isolation: isolate"/>
    <path id="Trazado_10" data-name="Trazado 10" d="M1920,162l-118.963,41.2-164.615-29.46-134.053,51.446L1431,272.568l-36.985-77.3-2.778,93.092L1323,286.089l-38.728,5.892L1215,288.364l-27,31.591-162,21.8-222.375-21.8L594,335.75H432l-73.6-9.637L171.56,327.853,0,333.224" transform="translate(0 500.628)" fill="none" stroke="#fff" stroke-width="2" opacity="0.1" style="mix-blend-mode: soft-light;isolation: isolate"/>
    <path id="Trazado_11" data-name="Trazado 11" d="M0,222.99l27-7.955,27,5.3,27-2.652,27,2.652,27-5.3,27,2.652,27-2.652,27,2.652h27l27,2.652,27-5.3,27,2.652,27-2.652,27,5.3h27l27,2.652,27-5.3,27,2.652,27-2.652h54l27,2.652,27-5.3,27,5.3,27-5.3,27,2.652,27-2.652,27,2.652,27-5.3,27,5.3,27-2.652,27,2.652,27-2.652,27,5.3,27-2.652,27,5.3,27-2.652s27.417,2.673,27,2.652,27-2.652,27-2.652l27-2.652,27,2.652,27-5.3,27,2.652,27-5.3,27-7.955,27,2.652,27-2.652h27l27-2.652,27,2.652,27-29.169,27,2.652,27,21.214,27-5.3,27-7.955,27-5.3,27-2.652,27-5.3,27,2.652,27-7.955,27-2.652,27,2.652,27,5.3h27l27,2.652,27-2.652s27,2.634,27,2.652,27-5.3,27-5.3l27,2.652,27-7.955L1917,162" transform="translate(0 560.011)" fill="none" stroke="#fff" stroke-width="2" opacity="0.1" style="mix-blend-mode: soft-light;isolation: isolate"/>
  </g>
</svg>
