<svg xmlns="http://www.w3.org/2000/svg" xmlns:xlink="http://www.w3.org/1999/xlink" width="1920" height="1970" viewBox="0 0 1920 1970">
  <defs>
    <clipPath id="clip-path">
      <rect id="Rectángulo_318" data-name="Rectángulo 318" width="1920" height="1970" transform="translate(0 2628)" fill="#fff" stroke="#707070" stroke-width="1"/>
    </clipPath>
  </defs>
  <g id="bg_graph-uprising" transform="translate(0 -2628)" clip-path="url(#clip-path)">
    <g id="bg_graph-uprising-2" data-name="bg_graph-uprising" transform="translate(-263.848 1971.026)" opacity="0.6">
      <path id="Trazado_317" data-name="Trazado 317" d="M0,2073.776l192.677-438.128,266.617,313.313L676.41,1401.817,792,897.847l59.9,822.072,4.5-990.062,110.518,24.2,62.725-62.662,112.2,38.467,43.73-335.98L1447.952,162l360.166,231.877,339.515-167.99h262.381l119.2,102.492,302.614-18.5,277.865-57.13" transform="translate(0 553.651)" fill="none" stroke="#138e68" stroke-width="3" opacity="0.5"/>
      <path id="Trazado_318" data-name="Trazado 318" d="M3104.836,162l-43.73,250.727-43.73-167.152-43.73,83.576-43.73-83.576-43.73,167.152-43.73-83.576-43.73,83.576L2755,329.156h-43.73l-43.73-83.576-43.73,167.152-43.73-83.576-43.73,83.576-43.73-167.152h-43.73L2405.155,162l-43.73,167.152-43.73-83.576-43.73,83.576H2186.5l-43.73-83.576-43.73,167.152-43.73-167.152-43.73,167.152-43.73-83.576-43.73,83.576-43.73-83.576-43.73,167.152-43.73-167.152-43.73,83.576-43.73-83.576-43.73,83.576-43.73-167.152-43.73,83.576L1530.553,162l-43.73,83.576s-44.406-84.252-43.73-83.576-43.73,83.576-43.73,83.576l-43.73,83.576L1311.9,245.58l-43.73,167.152-43.73-83.576-43.73,167.152-43.73,250.727-43.73-83.576-43.73,83.576h-43.73l-43.73,83.576-43.73-83.576L874.6,1666.368l-43.73-83.576-43.73-668.606-43.73,167.152-43.73,250.727-43.73,167.152-43.73,83.576-43.73,167.152-43.73-83.576L481.031,1917.1l-43.73,83.576-43.73-83.576-43.73-167.151h-43.73l-43.73-83.576-43.73,83.576s-43.736-83.023-43.73-83.576-43.73,167.151-43.73,167.151l-43.73-83.576L43.73,2000.671,0,2084.247" transform="translate(4.859 543.18)" fill="none" stroke="#0d4e3a" stroke-width="3" opacity="0.7"/>
      <path id="Trazado_319" data-name="Trazado 319" d="M0,834.724l192.677-154.17L459.293,790.8,676.41,598.272,792,420.933l59.9,289.274,4.5-348.387,110.518,8.514,62.725-22.05,112.2,13.536,43.73-118.226L1447.952,162l360.166,81.594,339.515-59.113h262.381l119.2,36.065,302.614-6.509,277.865-20.1" transform="translate(0 553.651)" fill="none" stroke="#fff" stroke-width="3" opacity="0.4" style="mix-blend-mode: soft-light;isolation: isolate"/>
      <path id="Trazado_320" data-name="Trazado 320" d="M3104.836,162l-43.73,102.274-43.73-68.183-43.73,34.091-43.73-34.091-43.73,68.183-43.73-34.091-43.73,34.091L2755,230.184h-43.73l-43.73-34.091-43.73,68.183-43.73-34.091-43.73,34.091-43.73-68.183h-43.73L2405.155,162l-43.73,68.183-43.73-34.091-43.73,34.091H2186.5l-43.73-34.091-43.73,68.183-43.73-68.183-43.73,68.183-43.73-34.091-43.73,34.091-43.73-34.091-43.73,68.183-43.73-68.183-43.73,34.091-43.73-34.091-43.73,34.091-43.73-68.183-43.73,34.091L1530.553,162l-43.73,34.091s-44.406-34.367-43.73-34.091-43.73,34.091-43.73,34.091l-43.73,34.091-43.73-34.091-43.73,68.183-43.73-34.091-43.73,68.183-43.73,102.274-43.73-34.091-43.73,34.091h-43.73l-43.73,34.091-43.73-34.091L874.6,775.646l-43.73-34.091-43.73-272.731-43.73,68.183-43.73,102.274-43.73,68.183-43.73,34.091-43.73,68.183-43.73-34.091-43.73,102.274L437.3,912.012l-43.73-34.091-43.73-68.183h-43.73l-43.73-34.091-43.73,34.091s-43.736-33.866-43.73-34.091-43.73,68.183-43.73,68.183L87.46,809.738,43.73,912.012,0,946.1" transform="translate(4.859 543.18)" fill="none" stroke="#fff" stroke-width="3" opacity="0.4" style="mix-blend-mode: soft-light;isolation: isolate"/>
      <path id="Trazado_321" data-name="Trazado 321" d="M0,644.943,192.677,534.265l266.617,79.147L676.41,475.2,792,347.886l59.9,207.667,4.5-250.1,110.518,6.112,62.725-15.829,112.2,9.717,43.73-84.873L1447.952,162l360.166,58.576,339.515-42.437h262.381l119.2,25.891,302.614-4.673L3109.7,184.925" transform="translate(0 553.651)" fill="none" stroke="#fff" stroke-width="3" opacity="0.3" style="mix-blend-mode: soft-light;isolation: isolate"/>
      <path id="Trazado_322" data-name="Trazado 322" d="M3104.836,162l-43.73,77.52-43.73-51.68-43.73,25.84-43.73-25.84-43.73,51.68-43.73-25.84-43.73,25.84L2755,213.681h-43.73l-43.73-25.84-43.73,51.68-43.73-25.84-43.73,25.84-43.73-51.68h-43.73L2405.155,162l-43.73,51.68-43.73-25.84-43.73,25.84H2186.5l-43.73-25.84-43.73,51.68-43.73-51.68-43.73,51.68-43.73-25.84-43.73,25.84-43.73-25.84-43.73,51.68-43.73-51.68-43.73,25.84-43.73-25.84-43.73,25.84-43.73-51.68-43.73,25.84L1530.553,162l-43.73,25.84s-44.406-26.049-43.73-25.84-43.73,25.84-43.73,25.84l-43.73,25.84-43.73-25.84-43.73,51.68-43.73-25.84-43.73,51.68-43.73,77.52-43.73-25.84-43.73,25.84h-43.73l-43.73,25.84-43.73-25.84L874.6,627.122l-43.73-25.84-43.73-206.72-43.73,51.68-43.73,77.52-43.73,51.68-43.73,25.84-43.73,51.68-43.73-25.84-43.73,77.52-43.73,25.84-43.73-25.84-43.73-51.68h-43.73l-43.73-25.84-43.73,25.84s-43.736-25.669-43.73-25.84-43.73,51.68-43.73,51.68l-43.73-25.84-43.73,77.52L0,756.323" transform="translate(4.859 543.18)" fill="none" stroke="#fff" stroke-width="3" opacity="0.3" style="mix-blend-mode: soft-light;isolation: isolate"/>
      <path id="Trazado_323" data-name="Trazado 323" d="M0,644.943,192.677,534.265l266.617,79.147L676.41,475.2,792,347.886l59.9,207.667,4.5-250.1,110.518,6.112,62.725-15.829,112.2,9.717,43.73-84.873L1447.952,162l360.166,58.576,339.515-42.437h262.381l119.2,25.891,302.614-4.673L3109.7,184.925" transform="translate(0 447)" fill="none" stroke="#fff" stroke-width="3" opacity="0.2" style="mix-blend-mode: soft-light;isolation: isolate"/>
      <path id="Trazado_324" data-name="Trazado 324" d="M3104.836,162l-43.73,37.9-43.73-25.268-43.73,12.634-43.73-12.634-43.73,25.268-43.73-12.634-43.73,12.634L2755,187.269h-43.73l-43.73-12.634-43.73,25.268-43.73-12.634-43.73,12.634-43.73-25.268h-43.73L2405.155,162l-43.73,25.268-43.73-12.634-43.73,12.634H2186.5l-43.73-12.634-43.73,25.268-43.73-25.268-43.73,25.268-43.73-12.634-43.73,12.634-43.73-12.634-43.73,25.268-43.73-25.268L1749.2,199.9l-43.73-12.634-43.73,12.634-43.73-25.268-43.73,12.634L1530.553,162l-43.73,12.634S1442.417,161.9,1443.093,162s-43.73,12.634-43.73,12.634l-43.73,12.634-43.73-12.634-43.73,25.268-43.73-12.634-43.73,25.268-43.73,37.9-43.73-12.634-43.73,12.634h-43.73l-43.73,12.634-43.73-12.634L874.6,389.413l-43.73-12.634-43.73-101.072-43.73,25.268-43.73,37.9-43.73,25.268-43.73,12.634-43.73,25.268-43.73-12.634-43.73,37.9L437.3,439.949l-43.73-12.634-43.73-25.268h-43.73l-43.73-12.634-43.73,12.634s-43.736-12.55-43.73-12.634-43.73,25.268-43.73,25.268L87.46,402.047l-43.73,37.9L0,452.583" transform="translate(4.859 543.18)" fill="none" stroke="#fff" stroke-width="3" opacity="0.2" style="mix-blend-mode: soft-light;isolation: isolate"/>
      <path id="Trazado_325" data-name="Trazado 325" d="M0,453.141l192.677-66.722,266.617,47.714L676.41,350.81,792,274.061l59.9,125.192,4.5-150.775,110.518,3.685,62.725-9.543,112.2,5.858,43.73-51.166L1447.952,162l360.166,35.312,339.515-25.583h262.381l119.2,15.608,302.614-2.817,277.865-8.7" transform="translate(0 447)" fill="none" stroke="#fff" stroke-width="3" opacity="0.1" style="mix-blend-mode: soft-light;isolation: isolate"/>
      <path id="Trazado_326" data-name="Trazado 326" d="M3104.836,162l-43.73,12.885-43.73-8.59-43.73,4.295-43.73-4.295-43.73,8.59-43.73-4.295-43.73,4.295L2755,170.59h-43.73l-43.73-4.295-43.73,8.59-43.73-4.295-43.73,4.295-43.73-8.59h-43.73L2405.155,162l-43.73,8.59-43.73-4.295-43.73,4.295H2186.5l-43.73-4.295-43.73,8.59-43.73-8.59-43.73,8.59-43.73-4.295-43.73,4.295-43.73-4.295-43.73,8.59-43.73-8.59-43.73,4.295-43.73-4.295-43.73,4.295-43.73-8.59-43.73,4.295-43.73-8.59-43.73,4.295s-44.406-4.33-43.73-4.295-43.73,4.295-43.73,4.295l-43.73,4.295L1311.9,166.3l-43.73,8.59-43.73-4.295-43.73,8.59-43.73,12.885-43.73-4.295-43.73,4.295h-43.73l-43.73,4.295-43.73-4.295L874.6,239.307l-43.73-4.295-43.73-34.359-43.73,8.59-43.73,12.884-43.73,8.59-43.73,4.295-43.73,8.59-43.73-4.295-43.73,12.884-43.73,4.295-43.73-4.295-43.73-8.59h-43.73l-43.73-4.295L218.65,243.6s-43.736-4.266-43.73-4.295-43.73,8.59-43.73,8.59L87.46,243.6,43.73,256.487,0,260.781" transform="translate(4.859 543.18)" fill="none" stroke="#fff" stroke-width="3" opacity="0.1" style="mix-blend-mode: soft-light;isolation: isolate"/>
    </g>
  </g>
</svg>
